/vscmnt/brussel_pixiu_data/_data_brussel/112/vsc11236/PredSimResults/SUBJ11mtu3D/worker5.mot
version=1
nRows=11
nColumns=50
inDegrees=yes
endheader
                time	         pelvis_tilt	         pelvis_list	     pelvis_rotation	           pelvis_tx	           pelvis_ty	           pelvis_tz	       hip_flexion_r	     hip_adduction_r	      hip_rotation_r	        knee_angle_r	       ankle_angle_r	         mtp_angle_r	       hip_flexion_l	     hip_adduction_l	      hip_rotation_l	        knee_angle_l	       ankle_angle_l	         mtp_angle_l	    lumbar_extension	      lumbar_bending	     lumbar_rotation	 ercspn_r/activation	 intobl_r/activation	 extobl_r/activation	    abd_r/activation	    add_r/activation	hamstrings_r/activation	bifemsh_r/activation	glut_max_r/activation	iliopsoas_r/activation	rect_fem_r/activation	  vasti_r/activation	gastroc_r/activation	 soleus_r/activation	tib_ant_r/activation	 ercspn_l/activation	 intobl_l/activation	 extobl_l/activation	    abd_l/activation	    add_l/activation	hamstrings_l/activation	bifemsh_l/activation	glut_max_l/activation	iliopsoas_l/activation	rect_fem_l/activation	  vasti_l/activation	gastroc_l/activation	 soleus_l/activation	tib_ant_l/activation	
          1.30078643	         -4.49412968	         -2.05628951	          5.13152527	          1.43086508	          0.94443610	         -0.01528169	         31.93908938	         -1.23490343	         -2.08206565	         -9.40544607	          6.44927984	          0.21237315	        -11.86842392	         -2.95101020	          1.31615646	        -10.71211287	         13.05768125	         26.27814733	         -9.09684724	          1.60109670	         -4.84020047	          0.10663617	          0.19032838	          0.02260859	          0.01000008	          0.19238967	          0.04854124	          0.06431843	          0.05402165	          0.04732428	          0.03352200	          0.01000021	          0.01000018	          0.01000002	          0.34770897	          0.02646567	          0.01000006	          0.01000011	          0.05847328	          0.01000022	          0.01423411	          0.18703752	          0.01000028	          0.20738617	          0.01419837	          0.01000010	          0.10719354	          0.28275599	          0.01480598	
          1.31379430	         -4.60685574	         -2.08765090	          5.27159482	          1.44860883	          0.94236481	         -0.01365595	         31.69344638	         -1.00831425	         -2.03884859	        -10.36981615	          5.94064341	          0.22589945	        -12.26538826	         -3.17269319	          1.05041680	        -11.69508959	         12.46517318	         28.13017091	         -8.64668295	          1.88467739	         -5.44446036	          0.08763692	          0.15641752	          0.01858041	          0.01000004	          0.21632378	          0.03989286	          0.05285933	          0.10395507	          0.03889250	          0.02754952	          0.01663475	          0.01480488	          0.01587095	          0.35571123	          0.06425975	          0.01000011	          0.01000019	          0.04805507	          0.01000369	          0.01169966	          0.15371325	          0.01278901	          0.17043613	          0.01166957	          0.01000020	          0.08809485	          0.26869726	          0.01216800	
          1.32680216	         -4.69848339	         -2.11963217	          5.39030811	          1.46676387	          0.94050578	         -0.01195470	         31.35255594	         -0.80311495	         -1.95273887	        -11.46651642	          5.44537608	          0.20393597	        -12.58727929	         -3.40138529	          0.76609808	        -12.87011473	         11.71964062	         30.05556995	         -8.15874287	          2.16802372	         -6.02607786	          0.07202349	          0.12854857	          0.01526994	          0.04095391	          0.18211567	          0.04520654	          0.04344208	          0.12219973	          0.03196301	          0.02264113	          0.03586148	          0.01216726	          0.01304324	          0.40769006	          0.05594671	          0.01000007	          0.01000031	          0.03949307	          0.01000049	          0.01001118	          0.12632630	          0.01051061	          0.14006947	          0.01000129	          0.01000021	          0.07239895	          0.24794242	          0.01000005	
          1.33981002	         -4.77352523	         -2.14113313	          5.47769758	          1.48500044	          0.93910275	         -0.01016898	         30.99770056	         -0.61218197	         -1.95120458	        -12.51390044	          4.72616951	          0.18510738	        -12.72100981	         -3.61969333	          0.45589997	        -14.38028859	         10.77926343	         32.06474419	         -7.67364686	          2.43711356	         -6.57394303	          0.06385993	          0.10564503	          0.01254931	          0.07444448	          0.19863770	          0.05029218	          0.03570305	          0.11208562	          0.02626815	          0.01860727	          0.09398276	          0.01000022	          0.01071934	          0.45592418	          0.08318105	          0.01000009	          0.01000022	          0.03245657	          0.01000164	          0.02026113	          0.10381887	          0.01642871	          0.11511325	          0.01000070	          0.01000025	          0.05949960	          0.22359120	          0.01000003	
          1.35281789	         -4.83317134	         -2.14932838	          5.53502658	          1.50315100	          0.93831211	         -0.00831427	         30.63318524	         -0.43097321	         -2.00352635	        -13.55743895	          4.04156207	          0.14039332	        -12.59114691	         -3.82304190	          0.11177335	        -16.32538505	          9.62110609	         34.11428425	         -7.20914269	          2.68787960	         -7.08727547	          0.05248216	          0.08682222	          0.01031342	          0.09127379	          0.22969341	          0.05584816	          0.02934305	          0.10131962	          0.02158795	          0.01529212	          0.14766867	          0.01000044	          0.01000014	          0.49563489	          0.08810919	          0.01000012	          0.01000022	          0.02667377	          0.07553834	          0.04036167	          0.08532161	          0.01350251	          0.09460349	          0.01000034	          0.01000017	          0.04889852	          0.18375395	          0.01000003	
          1.36582575	         -4.87847585	         -2.14147787	          5.56144949	          1.52109424	          0.93819598	         -0.00641178	         30.20572929	         -0.25646602	         -2.07665693	        -14.54878068	          3.61493648	          0.09899036	        -12.12156382	         -4.00918701	         -0.25696876	        -18.82210585	          8.27575191	         36.05002424	         -6.77806586	          2.91848820	         -7.56288396	          0.04313145	          0.07135308	          0.01000012	          0.11337521	          0.24769693	          0.06546318	          0.03107447	          0.08497840	          0.01774163	          0.01256765	          0.19262450	          0.01000065	          0.01000032	          0.50620126	          0.08931214	          0.01000020	          0.01000028	          0.02192129	          0.13340762	          0.06873234	          0.07012008	          0.01109726	          0.07774796	          0.01000019	          0.01000010	          0.04018625	          0.15101439	          0.01000003	
          1.37883362	         -4.91117101	         -2.11727412	          5.55541905	          1.53868041	          0.93878725	         -0.00449356	         29.67433917	         -0.08457797	         -2.13418615	        -15.39195476	          3.40711243	          0.06527957	        -11.24556183	         -4.18112143	         -0.64127263	        -21.95825402	          6.77676297	         37.63371679	         -6.39669961	          3.13308017	         -7.99554028	          0.03544673	          0.05864008	          0.01000019	          0.12978802	          0.25898092	          0.06982970	          0.02554149	          0.08181005	          0.01458061	          0.01032866	          0.22934003	          0.01000192	          0.01000141	          0.49847476	          0.09189338	          0.01000074	          0.01000063	          0.01801556	          0.19375166	          0.07112480	          0.05762729	          0.01000019	          0.06389559	          0.01000010	          0.01000004	          0.03302625	          0.12410805	          0.01000015	
          1.39184148	         -4.93278359	         -2.07361980	          5.51457190	          1.55577217	          0.94011390	         -0.00260068	         29.01664926	          0.08166189	         -2.16114103	        -16.02183633	          3.37887599	          0.04175571	         -9.92683322	         -4.34254580	         -1.05578690	        -25.77287910	          5.23478080	         38.39845280	         -6.08029895	          3.33383841	         -8.37904148	          0.02913121	          0.04819218	          0.01000019	          0.13130095	          0.25265191	          0.07314776	          0.02099244	          0.07120614	          0.01198281	          0.01000045	          0.25414880	          0.01000249	          0.01000063	          0.47885105	          0.09126067	          0.01735348	          0.01137046	          0.01480572	          0.22017227	          0.05845357	          0.04736095	          0.01000009	          0.05251131	          0.01000009	          0.01000003	          0.02714195	          0.10199563	          0.01000007	
          1.40484935	         -4.94373686	         -2.00288290	          5.43689156	          1.57230896	          0.94213276	         -0.00075978	         28.21864935	          0.23280360	         -2.15331703	        -16.39682587	          3.47949347	          0.02756201	         -8.17257490	         -4.49794461	         -1.49738007	        -30.22355921	          3.64769167	         38.10163337	         -5.83707547	          3.51448523	         -8.70827096	          0.02394094	          0.03960578	          0.01000023	          0.12203177	          0.25077003	          0.07403032	          0.01725287	          0.05895207	          0.01000009	          0.01000048	          0.26435370	          0.01000197	          0.01000042	          0.45280910	          0.08884076	          0.01764864	          0.02811609	          0.01216779	          0.25953917	          0.04803928	          0.04620870	          0.01000005	          0.04315540	          0.01000007	          0.01000002	          0.02230606	          0.08382300	          0.02684380	
          1.41785721	         -4.94355031	         -1.89575229	          5.31976621	          1.58826642	          0.94470141	          0.00101680	         27.29508206	          0.35661084	         -2.10791122	        -16.53514127	          3.67895117	          0.02517553	         -6.03692801	         -4.64572931	         -1.95381298	        -35.17619246	          2.02815899	         36.56520103	         -5.67268708	          3.66433581	         -8.98210525	          0.01967543	          0.03254924	          0.01000024	          0.11720255	          0.23664095	          0.07232126	          0.01417938	          0.05370009	          0.01000011	          0.01000042	          0.25971655	          0.01000053	          0.01000013	          0.42337862	          0.09392518	          0.02832722	          0.04047423	          0.01000001	          0.26338568	          0.03948032	          0.04618650	          0.01000003	          0.03546647	          0.01000008	          0.01000001	          0.01833180	          0.06888820	          0.07895972	
          1.43086508	         -4.93094248	         -1.74470239	          5.16407307	          1.60365510	          0.94760994	          0.00272805	         26.28430089	          0.44098096	         -2.02261897	        -16.49968553	          3.94118093	          0.03665110	         -3.62514299	         -4.78035253	         -2.40476732	        -40.43708631	          0.56898566	         33.55254487	         -5.58767229	          3.76993710	         -9.20148649	          0.01616993	          0.02674997	          0.01000019	          0.11502135	          0.20044518	          0.06825627	          0.01165354	          0.05363362	          0.01000011	          0.01000045	          0.24748387	          0.01000037	          0.01000011	          0.39054840	          0.11790701	          0.04656378	          0.06049523	          0.01000002	          0.21645829	          0.03244625	          0.03795926	          0.01000003	          0.02914766	          0.01000017	          0.01000001	          0.01506566	          0.05661434	          0.16220674	
